<mxfile host="app.diagrams.net" modified="2023-03-23T20:53:49.641Z" agent="5.0 (Macintosh; Intel Mac OS X 10_15_7) AppleWebKit/605.1.15 (KHTML, like Gecko) Version/16.3 Safari/605.1.15" etag="edpzDygZHijKGnvDLEZo" version="21.0.6" type="github">
  <diagram name="Страница 1" id="QAjLS0-2vsbmza_QrZ9O">
    <mxGraphModel dx="1194" dy="773" grid="1" gridSize="10" guides="1" tooltips="1" connect="1" arrows="1" fold="1" page="1" pageScale="1" pageWidth="827" pageHeight="1169" math="0" shadow="0">
      <root>
        <mxCell id="0" />
        <mxCell id="1" parent="0" />
        <mxCell id="QXkk3ooRDqtoRykQ-drr-1" value="покупатель" style="shape=umlActor;verticalLabelPosition=bottom;verticalAlign=top;html=1;outlineConnect=0;" parent="1" vertex="1">
          <mxGeometry x="40" y="50" width="30" height="60" as="geometry" />
        </mxCell>
        <mxCell id="QXkk3ooRDqtoRykQ-drr-3" value="" style="endArrow=none;dashed=1;html=1;rounded=0;startArrow=none;" parent="1" source="QXkk3ooRDqtoRykQ-drr-4" target="QXkk3ooRDqtoRykQ-drr-1" edge="1">
          <mxGeometry width="50" height="50" relative="1" as="geometry">
            <mxPoint x="55" y="500" as="sourcePoint" />
            <mxPoint x="55" y="110" as="targetPoint" />
          </mxGeometry>
        </mxCell>
        <mxCell id="QXkk3ooRDqtoRykQ-drr-5" value="" style="endArrow=none;dashed=1;html=1;rounded=0;exitX=0.5;exitY=0.29;exitDx=0;exitDy=0;exitPerimeter=0;" parent="1" target="QXkk3ooRDqtoRykQ-drr-4" edge="1">
          <mxGeometry width="50" height="50" relative="1" as="geometry">
            <mxPoint x="55" y="428.70000000000005" as="sourcePoint" />
            <mxPoint x="54.5" y="140" as="targetPoint" />
          </mxGeometry>
        </mxCell>
        <mxCell id="QXkk3ooRDqtoRykQ-drr-4" value="" style="rounded=0;whiteSpace=wrap;html=1;" parent="1" vertex="1">
          <mxGeometry x="40" y="150" width="30" height="230" as="geometry" />
        </mxCell>
        <mxCell id="QXkk3ooRDqtoRykQ-drr-25" value="Обработка&lt;br&gt;денежных средств" style="html=1;verticalAlign=bottom;endArrow=block;edgeStyle=elbowEdgeStyle;elbow=vertical;curved=0;rounded=0;exitX=1;exitY=0;exitDx=0;exitDy=0;entryX=1;entryY=0.25;entryDx=0;entryDy=0;" parent="1" source="QXkk3ooRDqtoRykQ-drr-27" target="QXkk3ooRDqtoRykQ-drr-27" edge="1">
          <mxGeometry x="-0.0823" y="20" width="80" relative="1" as="geometry">
            <mxPoint x="250" y="170" as="sourcePoint" />
            <mxPoint x="270" y="180" as="targetPoint" />
            <Array as="points">
              <mxPoint x="240" y="160" />
              <mxPoint x="250" y="170" />
            </Array>
            <mxPoint x="9" y="-17" as="offset" />
          </mxGeometry>
        </mxCell>
        <mxCell id="QXkk3ooRDqtoRykQ-drr-26" value="Касса" style="shape=umlLifeline;perimeter=lifelinePerimeter;whiteSpace=wrap;html=1;container=1;dropTarget=0;collapsible=0;recursiveResize=0;outlineConnect=0;portConstraint=eastwest;newEdgeStyle={&quot;edgeStyle&quot;:&quot;elbowEdgeStyle&quot;,&quot;elbow&quot;:&quot;vertical&quot;,&quot;curved&quot;:0,&quot;rounded&quot;:0};" parent="1" vertex="1">
          <mxGeometry x="160" y="50" width="100" height="220" as="geometry" />
        </mxCell>
        <mxCell id="QXkk3ooRDqtoRykQ-drr-27" value="" style="rounded=0;whiteSpace=wrap;html=1;" parent="1" vertex="1">
          <mxGeometry x="195" y="150" width="30" height="100" as="geometry" />
        </mxCell>
        <mxCell id="QXkk3ooRDqtoRykQ-drr-30" value="Запрос товара" style="endArrow=open;endSize=12;dashed=1;html=1;rounded=0;exitX=1.1;exitY=0.117;exitDx=0;exitDy=0;exitPerimeter=0;" parent="1" source="QXkk3ooRDqtoRykQ-drr-4" edge="1">
          <mxGeometry x="0.055" y="7" width="160" relative="1" as="geometry">
            <mxPoint x="70" y="170" as="sourcePoint" />
            <mxPoint x="200" y="177" as="targetPoint" />
            <mxPoint as="offset" />
          </mxGeometry>
        </mxCell>
        <mxCell id="QXkk3ooRDqtoRykQ-drr-32" value="" style="endArrow=open;endSize=12;dashed=1;html=1;rounded=0;exitX=1.067;exitY=0.213;exitDx=0;exitDy=0;exitPerimeter=0;entryX=0;entryY=0.5;entryDx=0;entryDy=0;" parent="1" source="QXkk3ooRDqtoRykQ-drr-4" target="QXkk3ooRDqtoRykQ-drr-27" edge="1">
          <mxGeometry x="-0.0569" width="160" relative="1" as="geometry">
            <mxPoint x="82" y="190" as="sourcePoint" />
            <mxPoint x="205" y="190" as="targetPoint" />
            <mxPoint as="offset" />
            <Array as="points">
              <mxPoint x="120" y="200" />
            </Array>
          </mxGeometry>
        </mxCell>
        <mxCell id="QXkk3ooRDqtoRykQ-drr-33" value="Склад" style="shape=umlLifeline;perimeter=lifelinePerimeter;whiteSpace=wrap;html=1;container=1;dropTarget=0;collapsible=0;recursiveResize=0;outlineConnect=0;portConstraint=eastwest;newEdgeStyle={&quot;edgeStyle&quot;:&quot;elbowEdgeStyle&quot;,&quot;elbow&quot;:&quot;vertical&quot;,&quot;curved&quot;:0,&quot;rounded&quot;:0};" parent="1" vertex="1">
          <mxGeometry x="360" y="50" width="100" height="300" as="geometry" />
        </mxCell>
        <mxCell id="QXkk3ooRDqtoRykQ-drr-35" value="" style="rounded=0;whiteSpace=wrap;html=1;" parent="1" vertex="1">
          <mxGeometry x="395" y="220" width="30" height="60" as="geometry" />
        </mxCell>
        <mxCell id="QXkk3ooRDqtoRykQ-drr-36" value="Запрос продукта" style="html=1;verticalAlign=bottom;endArrow=block;edgeStyle=elbowEdgeStyle;elbow=vertical;curved=0;rounded=0;exitX=1;exitY=0.5;exitDx=0;exitDy=0;entryX=0;entryY=0;entryDx=0;entryDy=0;" parent="1" source="QXkk3ooRDqtoRykQ-drr-27" target="QXkk3ooRDqtoRykQ-drr-35" edge="1">
          <mxGeometry y="-20" width="80" relative="1" as="geometry">
            <mxPoint x="230" y="190" as="sourcePoint" />
            <mxPoint x="320" y="240" as="targetPoint" />
            <Array as="points">
              <mxPoint x="350" y="220" />
              <mxPoint x="340" y="200" />
              <mxPoint x="330" y="180" />
            </Array>
            <mxPoint as="offset" />
          </mxGeometry>
        </mxCell>
        <mxCell id="QXkk3ooRDqtoRykQ-drr-37" value="Пункт выдачи" style="shape=umlLifeline;perimeter=lifelinePerimeter;whiteSpace=wrap;html=1;container=1;dropTarget=0;collapsible=0;recursiveResize=0;outlineConnect=0;portConstraint=eastwest;newEdgeStyle={&quot;edgeStyle&quot;:&quot;elbowEdgeStyle&quot;,&quot;elbow&quot;:&quot;vertical&quot;,&quot;curved&quot;:0,&quot;rounded&quot;:0};" parent="1" vertex="1">
          <mxGeometry x="550" y="50" width="100" height="330" as="geometry" />
        </mxCell>
        <mxCell id="QXkk3ooRDqtoRykQ-drr-38" value="" style="rounded=0;whiteSpace=wrap;html=1;" parent="1" vertex="1">
          <mxGeometry x="585" y="250" width="30" height="60" as="geometry" />
        </mxCell>
        <mxCell id="QXkk3ooRDqtoRykQ-drr-39" value="Передача товара&lt;br&gt;&amp;nbsp;на выдачу" style="html=1;verticalAlign=bottom;endArrow=block;edgeStyle=elbowEdgeStyle;elbow=vertical;curved=0;rounded=0;entryX=0;entryY=0;entryDx=0;entryDy=0;exitX=1;exitY=0.5;exitDx=0;exitDy=0;" parent="1" source="QXkk3ooRDqtoRykQ-drr-35" target="QXkk3ooRDqtoRykQ-drr-38" edge="1">
          <mxGeometry x="0.1875" y="-20" width="80" relative="1" as="geometry">
            <mxPoint x="450" y="300" as="sourcePoint" />
            <mxPoint x="530" y="300" as="targetPoint" />
            <mxPoint as="offset" />
          </mxGeometry>
        </mxCell>
        <mxCell id="QXkk3ooRDqtoRykQ-drr-40" value="Выдача товара" style="html=1;verticalAlign=bottom;endArrow=open;dashed=1;endSize=8;edgeStyle=elbowEdgeStyle;elbow=vertical;curved=0;rounded=0;exitX=0;exitY=0.75;exitDx=0;exitDy=0;" parent="1" source="QXkk3ooRDqtoRykQ-drr-38" target="QXkk3ooRDqtoRykQ-drr-4" edge="1">
          <mxGeometry relative="1" as="geometry">
            <mxPoint x="550" y="330" as="sourcePoint" />
            <mxPoint x="470" y="330" as="targetPoint" />
            <Array as="points">
              <mxPoint x="280" y="310" />
            </Array>
          </mxGeometry>
        </mxCell>
        <mxCell id="QXkk3ooRDqtoRykQ-drr-41" value="Оплата" style="html=1;verticalAlign=bottom;endArrow=open;dashed=1;endSize=8;edgeStyle=elbowEdgeStyle;elbow=vertical;curved=0;rounded=0;exitX=0;exitY=1;exitDx=0;exitDy=0;" parent="1" source="QXkk3ooRDqtoRykQ-drr-27" edge="1">
          <mxGeometry x="0.2727" relative="1" as="geometry">
            <mxPoint x="595" y="345" as="sourcePoint" />
            <mxPoint x="70" y="210" as="targetPoint" />
            <Array as="points">
              <mxPoint x="140" y="210" />
              <mxPoint x="140" y="235" />
            </Array>
            <mxPoint as="offset" />
          </mxGeometry>
        </mxCell>
        <mxCell id="QXkk3ooRDqtoRykQ-drr-45" value="" style="verticalLabelPosition=bottom;verticalAlign=top;html=1;shape=mxgraph.basic.x" parent="1" vertex="1">
          <mxGeometry x="585" y="370" width="30" height="30" as="geometry" />
        </mxCell>
        <mxCell id="QXkk3ooRDqtoRykQ-drr-47" value="" style="html=1;verticalAlign=bottom;endArrow=open;dashed=1;endSize=8;edgeStyle=elbowEdgeStyle;elbow=vertical;curved=0;rounded=0;exitX=-0.033;exitY=0.383;exitDx=0;exitDy=0;exitPerimeter=0;entryX=1;entryY=0.75;entryDx=0;entryDy=0;" parent="1" source="QXkk3ooRDqtoRykQ-drr-35" target="QXkk3ooRDqtoRykQ-drr-27" edge="1">
          <mxGeometry x="0.1429" y="18" relative="1" as="geometry">
            <mxPoint x="365" y="257.5" as="sourcePoint" />
            <mxPoint x="228" y="242" as="targetPoint" />
            <Array as="points">
              <mxPoint x="310" y="225" />
            </Array>
            <mxPoint as="offset" />
          </mxGeometry>
        </mxCell>
        <mxCell id="EG8mj1bHGtBLzSAtWWCv-2" value="" style="curved=1;endArrow=classic;html=1;rounded=0;exitX=1.019;exitY=0.144;exitDx=0;exitDy=0;exitPerimeter=0;entryX=0.75;entryY=0;entryDx=0;entryDy=0;" edge="1" parent="1" source="QXkk3ooRDqtoRykQ-drr-35" target="QXkk3ooRDqtoRykQ-drr-35">
          <mxGeometry width="50" height="50" relative="1" as="geometry">
            <mxPoint x="430" y="230" as="sourcePoint" />
            <mxPoint x="470" y="180" as="targetPoint" />
            <Array as="points">
              <mxPoint x="470" y="230" />
              <mxPoint x="420" y="180" />
            </Array>
          </mxGeometry>
        </mxCell>
        <mxCell id="EG8mj1bHGtBLzSAtWWCv-3" value="Нахождение товара" style="edgeLabel;html=1;align=center;verticalAlign=middle;resizable=0;points=[];" vertex="1" connectable="0" parent="EG8mj1bHGtBLzSAtWWCv-2">
          <mxGeometry x="0.0383" relative="1" as="geometry">
            <mxPoint x="26" y="-24" as="offset" />
          </mxGeometry>
        </mxCell>
        <mxCell id="EG8mj1bHGtBLzSAtWWCv-4" value="" style="verticalLabelPosition=bottom;verticalAlign=top;html=1;shape=mxgraph.basic.x" vertex="1" parent="1">
          <mxGeometry x="195" y="260" width="30" height="30" as="geometry" />
        </mxCell>
        <mxCell id="EG8mj1bHGtBLzSAtWWCv-7" value="" style="verticalLabelPosition=bottom;verticalAlign=top;html=1;shape=mxgraph.basic.x" vertex="1" parent="1">
          <mxGeometry x="395" y="330" width="30" height="30" as="geometry" />
        </mxCell>
      </root>
    </mxGraphModel>
  </diagram>
</mxfile>
